#Comment line ignore any data following # character 
#Hierarchical Translation and Rotation (.htr) file 
[Header]	
#Header keywords are followed by a single value 
FileType HTR		#Single word string
DataType HTRS		#Translation followed by rotation and scale data
FileVersion 1		#integer
NumSegments 84		#integer
NumFrames 2		#integer
DataFrameRate 30		#integer, data frame rate in this file
EulerRotationOrder ZYX
CalibrationUnits mm
RotationUnits Degrees
GlobalAxisofGravity Y
BoneLengthAxis Y
ScaleFactor 1.00
[SegmentNames&Hierarchy]
#CHILD	PARENT
MASTER GLOBAL
root MASTER
chest root
L_mid_tent01 root
R_mid_tent01 root
spine01 root
Bip01_Neck chest
L_humerus chest
R_humerus chest
weapon_bone chest
Bip01_Head Bip01_Neck
eye_left_bone Bip01_Head
eye_right_bone Bip01_Head
L_forearm L_humerus
L_front_hand L_forearm
L_weapon_bone L_forearm
L_front_hand01_01 L_front_hand
L_front_hand02_01 L_front_hand
L_front_hand03_01 L_front_hand
L_front_hand01_02 L_front_hand01_01
L_front_hand02_02 L_front_hand02_01
L_front_hand03_02 L_front_hand03_01
R_forearm R_humerus
R_front_hand R_forearm
R_weapon_bone R_forearm
R_front_hand01_01 R_front_hand
R_front_hand02_01 R_front_hand
R_front_hand03_01 R_front_hand
R_front_hand01_02 R_front_hand01_01
R_front_hand02_02 R_front_hand02_01
R_front_hand03_02 R_front_hand03_01
null_rope01_connect L_mid_tent01
Rope1_Seg01 null_rope01_connect
Rope1_Seg02 Rope1_Seg01
Rope1_Seg03 Rope1_Seg02
Rope1_Seg04 Rope1_Seg03
Rope1_Seg05 Rope1_Seg04
Rope1_Seg06 Rope1_Seg05
Rope1_Seg07 Rope1_Seg06
Rope1_Seg09 Rope1_Seg07
L_mid_hand01 Rope1_Seg09
L_mid_hand02 Rope1_Seg09
L_mid_hand03 Rope1_Seg09
null_rope02_connect R_mid_tent01
Rope2_Seg01 null_rope02_connect
Rope2_Seg02 Rope2_Seg01
Rope2_Seg03 Rope2_Seg02
Rope2_Seg04 Rope2_Seg03
Rope2_Seg05 Rope2_Seg04
Rope2_Seg06 Rope2_Seg05
Rope2_Seg07 Rope2_Seg06
Rope2_Seg09 Rope2_Seg07
R_mid_hand01 Rope2_Seg09
R_mid_hand02 Rope2_Seg09
R_mid_hand03 Rope2_Seg09
spine02 spine01
spine03 spine02
pelvis spine03
null_rope03_connect pelvis
null_rope04_connect pelvis
Rope3_Seg01 null_rope03_connect
Rope3_Seg02 Rope3_Seg01
Rope3_Seg03 Rope3_Seg02
Rope3_Seg04 Rope3_Seg03
Rope3_Seg05 Rope3_Seg04
Rope3_Seg06 Rope3_Seg05
Rope3_Seg07 Rope3_Seg06
Rope3_Seg08 Rope3_Seg07
Rope3_Seg09 Rope3_Seg08
R_rear_hand01 Rope3_Seg09
R_rear_hand02 Rope3_Seg09
R_rear_hand03 Rope3_Seg09
Rope4_Seg01 null_rope04_connect
Rope4_Seg02 Rope4_Seg01
Rope4_Seg03 Rope4_Seg02
Rope4_Seg04 Rope4_Seg03
Rope4_Seg05 Rope4_Seg04
Rope4_Seg06 Rope4_Seg05
Rope4_Seg07 Rope4_Seg06
Rope4_Seg08 Rope4_Seg07
Rope4_Seg09 Rope4_Seg08
L_rear_hand01 Rope4_Seg09
L_rear_hand02 Rope4_Seg09
L_rear_hand03 Rope4_Seg09
[BasePosition]
#SegmentName Tx, Ty, Tz, Rx, Ry, Rz, BoneLength
MASTER 0.000000 0.000000 0.000000 -90.000000 0.000000 0.000000 10.000000 
root 0.000000 0.000000 0.000000 0.000000 0.000000 0.000000 10.000000 
chest 0.000000 0.000000 0.000000 0.000000 0.000000 0.000000 10.000000 
L_mid_tent01 0.000000 0.000000 0.000000 0.000000 0.000000 0.000000 10.000000 
R_mid_tent01 0.000000 0.000000 0.000000 0.000000 0.000000 0.000000 10.000000 
spine01 0.000000 0.000000 0.000000 0.000000 0.000000 0.000000 10.000000 
Bip01_Neck 0.000000 0.000000 0.000000 0.000000 0.000000 0.000000 10.000000 
L_humerus 0.000000 0.000000 0.000000 0.000000 0.000000 0.000000 10.000000 
R_humerus 0.000000 0.000000 0.000000 0.000000 0.000000 0.000000 10.000000 
weapon_bone 0.000000 0.000000 0.000000 0.000000 0.000000 0.000000 10.000000 
Bip01_Head 0.000000 0.000000 0.000000 0.000000 0.000000 0.000000 10.000000 
eye_left_bone 0.000000 0.000000 0.000000 0.000000 0.000000 0.000000 10.000000 
eye_right_bone 0.000000 0.000000 0.000000 0.000000 0.000000 0.000000 10.000000 
L_forearm 0.000000 0.000000 0.000000 0.000000 0.000000 0.000000 10.000000 
L_front_hand 0.000000 0.000000 0.000000 0.000000 0.000000 0.000000 10.000000 
L_weapon_bone 0.000000 0.000000 0.000000 0.000000 0.000000 0.000000 10.000000 
L_front_hand01_01 0.000000 0.000000 0.000000 0.000000 0.000000 0.000000 10.000000 
L_front_hand02_01 0.000000 0.000000 0.000000 0.000000 0.000000 0.000000 10.000000 
L_front_hand03_01 0.000000 0.000000 0.000000 0.000000 0.000000 0.000000 10.000000 
L_front_hand01_02 0.000000 0.000000 0.000000 0.000000 0.000000 0.000000 10.000000 
L_front_hand02_02 0.000000 0.000000 0.000000 0.000000 0.000000 0.000000 10.000000 
L_front_hand03_02 0.000000 0.000000 0.000000 0.000000 0.000000 0.000000 10.000000 
R_forearm 0.000000 0.000000 0.000000 0.000000 0.000000 0.000000 10.000000 
R_front_hand 0.000000 0.000000 0.000000 0.000000 0.000000 0.000000 10.000000 
R_weapon_bone 0.000000 0.000000 0.000000 0.000000 0.000000 0.000000 10.000000 
R_front_hand01_01 0.000000 0.000000 0.000000 0.000000 0.000000 0.000000 10.000000 
R_front_hand02_01 0.000000 0.000000 0.000000 0.000000 0.000000 0.000000 10.000000 
R_front_hand03_01 0.000000 0.000000 0.000000 0.000000 0.000000 0.000000 10.000000 
R_front_hand01_02 0.000000 0.000000 0.000000 0.000000 0.000000 0.000000 10.000000 
R_front_hand02_02 0.000000 0.000000 0.000000 0.000000 0.000000 0.000000 10.000000 
R_front_hand03_02 0.000000 0.000000 0.000000 0.000000 0.000000 0.000000 10.000000 
null_rope01_connect 0.000000 0.000000 0.000000 0.000000 0.000000 0.000000 10.000000 
Rope1_Seg01 0.000000 0.000000 0.000000 0.000000 0.000000 0.000000 10.000000 
Rope1_Seg02 0.000000 0.000000 0.000000 0.000000 0.000000 0.000000 10.000000 
Rope1_Seg03 0.000000 0.000000 0.000000 0.000000 0.000000 0.000000 10.000000 
Rope1_Seg04 0.000000 0.000000 0.000000 0.000000 0.000000 0.000000 10.000000 
Rope1_Seg05 0.000000 0.000000 0.000000 0.000000 0.000000 0.000000 10.000000 
Rope1_Seg06 0.000000 0.000000 0.000000 0.000000 0.000000 0.000000 10.000000 
Rope1_Seg07 0.000000 0.000000 0.000000 0.000000 0.000000 0.000000 10.000000 
Rope1_Seg09 0.000000 0.000000 0.000000 0.000000 0.000000 0.000000 10.000000 
L_mid_hand01 0.000000 0.000000 0.000000 0.000000 0.000000 0.000000 10.000000 
L_mid_hand02 0.000000 0.000000 0.000000 0.000000 0.000000 0.000000 10.000000 
L_mid_hand03 0.000000 0.000000 0.000000 0.000000 0.000000 0.000000 10.000000 
null_rope02_connect 0.000000 0.000000 0.000000 0.000000 0.000000 0.000000 10.000000 
Rope2_Seg01 0.000000 0.000000 0.000000 0.000000 0.000000 0.000000 10.000000 
Rope2_Seg02 0.000000 0.000000 0.000000 0.000000 0.000000 0.000000 10.000000 
Rope2_Seg03 0.000000 0.000000 0.000000 0.000000 0.000000 0.000000 10.000000 
Rope2_Seg04 0.000000 0.000000 0.000000 0.000000 0.000000 0.000000 10.000000 
Rope2_Seg05 0.000000 0.000000 0.000000 0.000000 0.000000 0.000000 10.000000 
Rope2_Seg06 0.000000 0.000000 0.000000 0.000000 0.000000 0.000000 10.000000 
Rope2_Seg07 0.000000 0.000000 0.000000 0.000000 0.000000 0.000000 10.000000 
Rope2_Seg09 0.000000 0.000000 0.000000 0.000000 0.000000 0.000000 10.000000 
R_mid_hand01 0.000000 0.000000 0.000000 0.000000 0.000000 0.000000 10.000000 
R_mid_hand02 0.000000 0.000000 0.000000 0.000000 0.000000 0.000000 10.000000 
R_mid_hand03 0.000000 0.000000 0.000000 0.000000 0.000000 0.000000 10.000000 
spine02 0.000000 0.000000 0.000000 0.000000 0.000000 0.000000 10.000000 
spine03 0.000000 0.000000 0.000000 0.000000 0.000000 0.000000 10.000000 
pelvis 0.000000 0.000000 0.000000 0.000000 0.000000 0.000000 10.000000 
null_rope03_connect 0.000000 0.000000 0.000000 0.000000 0.000000 0.000000 10.000000 
null_rope04_connect 0.000000 0.000000 0.000000 0.000000 0.000000 0.000000 10.000000 
Rope3_Seg01 0.000000 0.000000 0.000000 0.000000 0.000000 0.000000 10.000000 
Rope3_Seg02 0.000000 0.000000 0.000000 0.000000 0.000000 0.000000 10.000000 
Rope3_Seg03 0.000000 0.000000 0.000000 0.000000 0.000000 0.000000 10.000000 
Rope3_Seg04 0.000000 0.000000 0.000000 0.000000 0.000000 0.000000 10.000000 
Rope3_Seg05 0.000000 0.000000 0.000000 0.000000 0.000000 0.000000 10.000000 
Rope3_Seg06 0.000000 0.000000 0.000000 0.000000 0.000000 0.000000 10.000000 
Rope3_Seg07 0.000000 0.000000 0.000000 0.000000 0.000000 0.000000 10.000000 
Rope3_Seg08 0.000000 0.000000 0.000000 0.000000 0.000000 0.000000 10.000000 
Rope3_Seg09 0.000000 0.000000 0.000000 0.000000 0.000000 0.000000 10.000000 
R_rear_hand01 0.000000 0.000000 0.000000 0.000000 0.000000 0.000000 10.000000 
R_rear_hand02 0.000000 0.000000 0.000000 0.000000 0.000000 0.000000 10.000000 
R_rear_hand03 0.000000 0.000000 0.000000 0.000000 0.000000 0.000000 10.000000 
Rope4_Seg01 0.000000 0.000000 0.000000 0.000000 0.000000 0.000000 10.000000 
Rope4_Seg02 0.000000 0.000000 0.000000 0.000000 0.000000 0.000000 10.000000 
Rope4_Seg03 0.000000 0.000000 0.000000 0.000000 0.000000 0.000000 10.000000 
Rope4_Seg04 0.000000 0.000000 0.000000 0.000000 0.000000 0.000000 10.000000 
Rope4_Seg05 0.000000 0.000000 0.000000 0.000000 0.000000 0.000000 10.000000 
Rope4_Seg06 0.000000 0.000000 0.000000 0.000000 0.000000 0.000000 10.000000 
Rope4_Seg07 0.000000 0.000000 0.000000 0.000000 0.000000 0.000000 10.000000 
Rope4_Seg08 0.000000 0.000000 0.000000 0.000000 0.000000 0.000000 10.000000 
Rope4_Seg09 0.000000 0.000000 0.000000 0.000000 0.000000 0.000000 10.000000 
L_rear_hand01 0.000000 0.000000 0.000000 0.000000 0.000000 0.000000 10.000000 
L_rear_hand02 0.000000 0.000000 0.000000 0.000000 0.000000 0.000000 10.000000 
L_rear_hand03 0.000000 0.000000 0.000000 0.000000 0.000000 0.000000 10.000000 
#Beginning of Data. Separated by tabs
#Fr	Tx	Ty	Tz	Rx	Ry	Rz	SF
[MASTER]
28 0.000000 0.000000 0.000000 0.001660 0.001660 0.001660 0.000000
29 0.000000 0.000000 0.000000 0.001660 0.001660 0.001660 0.000000
[root]
28 92.201950 -62.069099 1450.945557 -110.101486 17.840202 -88.612999 1455.196411
29 87.080276 -60.300682 1463.851807 -109.734795 17.113468 -88.366150 1467.678833
[chest]
28 -86.836609 -33.005978 -30.127241 12.127559 -8.475800 177.315872 97.660843
29 -86.836609 -33.005978 -30.127241 11.401880 -8.420405 176.479782 97.660843
[L_mid_tent01]
28 27.299503 22.177580 -249.918289 -7.226198 20.699581 72.260750 252.381180
29 27.299501 22.177580 -249.918289 -6.991296 20.736261 72.899986 252.381180
[R_mid_tent01]
28 23.228794 24.509907 226.238495 -175.992249 -18.641804 65.432083 228.744751
29 23.228794 24.509907 226.238495 -175.990540 -18.666874 65.433624 228.744751
[spine01]
28 -0.361383 -0.195265 0.000000 -0.000001 -0.000007 22.052340 0.410763
29 -0.361383 -0.195265 0.000000 -0.000001 -0.000007 22.052340 0.410763
[Bip01_Neck]
28 165.484543 71.581718 0.000119 175.896118 1.177290 24.871183 180.302734
29 165.484543 71.581718 0.000119 175.896118 1.177290 24.871183 180.302734
[L_humerus]
28 -13.983130 -135.272980 -120.471481 -168.517593 36.033749 -113.483025 181.680161
29 -13.983130 -135.272980 -120.471481 -168.517593 36.033764 -113.483047 181.680161
[R_humerus]
28 -13.983309 -135.273102 125.287651 -179.575821 -32.377136 -122.063721 184.909012
29 -13.983309 -135.273102 125.287651 -179.575058 -32.236603 -122.062408 184.909012
[weapon_bone]
28 235.964890 -300.705902 0.000000 0.000000 -89.951546 -128.212341 382.234833
29 235.964890 -300.705902 0.000000 0.000000 -89.951546 -128.212341 382.234833
[Bip01_Head]
28 189.519897 179.130264 22.124895 -23.626308 5.787232 14.654977 261.715393
29 189.519882 179.130264 22.124897 -23.626308 5.787232 14.654977 261.715393
[eye_left_bone]
28 -24.626970 125.451866 -64.772606 0.000000 -90.000000 -99.840431 143.318359
29 -24.626970 125.451866 -64.772606 0.000000 -90.000000 -99.840431 143.318359
[eye_right_bone]
28 -24.626970 125.451866 64.327362 0.000000 -89.965736 80.156380 143.117676
29 -24.626970 125.451866 64.327362 0.000000 -89.965736 80.156380 143.117676
[L_forearm]
28 322.776093 0.000000 -0.000119 0.000017 0.002347 -89.149834 322.776093
29 322.776093 0.000000 -0.000119 0.000017 0.002347 -89.149834 322.776093
[L_front_hand]
28 241.149185 -0.042021 -3.300071 64.546356 -2.242246 -0.021828 241.171753
29 241.149185 -0.042021 -3.300071 63.263783 -2.244608 -0.021355 241.171753
[L_weapon_bone]
28 156.183838 0.000000 0.000000 0.000014 0.000007 0.000001 156.183838
29 156.183838 0.000000 0.000000 0.000014 0.000007 0.000001 156.183838
[L_front_hand01_01]
28 86.095154 20.947098 -0.655860 -0.366594 -0.477154 75.385574 88.609184
29 86.095154 20.947098 -0.655860 -0.366594 -0.477154 75.385574 88.609184
[L_front_hand02_01]
28 86.935165 -11.437475 24.513514 154.399796 -59.883835 -61.369587 91.046425
29 86.935165 -11.437475 24.513514 154.399796 -59.883835 -61.369587 91.046425
[L_front_hand03_01]
28 86.637497 -14.123976 -20.424902 -153.913849 58.118122 -62.702866 90.126129
29 86.637497 -14.123976 -20.424902 -153.913879 58.118130 -62.702892 90.126129
[L_front_hand01_02]
28 71.020905 -0.000179 0.000030 0.000334 -0.002323 -106.379684 71.020905
29 71.020905 -0.000179 0.000030 0.000334 -0.002323 -106.379684 71.020905
[L_front_hand02_02]
28 71.020927 -0.000119 0.000060 0.000334 -0.002323 -106.379684 71.020927
29 71.020927 -0.000119 0.000060 0.000334 -0.002323 -106.379684 71.020927
[L_front_hand03_02]
28 71.020905 -0.000060 0.000060 0.000334 -0.002323 -106.379684 71.020905
29 71.020905 -0.000060 0.000060 0.000334 -0.002323 -106.379684 71.020905
[R_forearm]
28 322.776428 -0.000060 0.000030 0.213197 0.007525 -93.425247 322.776428
29 322.776428 -0.000060 0.000030 0.213197 0.007525 -93.425262 322.776428
[R_front_hand]
28 238.847015 -0.006795 2.210259 -0.270529 1.703932 2.322530 238.857239
29 238.847015 -0.006795 2.210259 -0.270529 1.703932 2.322531 238.857239
[R_weapon_bone]
28 155.664093 0.002503 -0.000030 0.003487 0.001180 -90.988930 155.664078
29 155.664093 0.002503 -0.000030 0.003487 0.001180 -90.988930 155.664078
[R_front_hand01_01]
28 87.624611 14.231146 22.918642 -154.633484 -59.950619 61.746037 91.683487
29 87.624611 14.231146 22.918642 -154.633499 -59.950642 61.746071 91.683487
[R_front_hand02_01]
28 89.356956 14.367283 -19.491137 154.602661 58.302856 63.744389 92.579636
29 89.356956 14.367283 -19.491137 154.602661 58.302849 63.744389 92.579636
[R_front_hand03_01]
28 87.286232 -22.307278 -0.143439 0.162155 -0.423168 -75.767906 90.091743
29 87.286232 -22.307278 -0.143439 0.162155 -0.423168 -75.767921 90.091743
[R_front_hand01_02]
28 71.020905 0.000060 0.000119 0.002323 -0.000334 106.381714 71.020905
29 71.020905 0.000060 0.000119 0.002323 -0.000334 106.381714 71.020905
[R_front_hand02_02]
28 71.020844 -0.000030 -0.000119 0.002323 -0.000334 106.381714 71.020836
29 71.020844 -0.000030 -0.000119 0.002323 -0.000334 106.381714 71.020836
[R_front_hand03_02]
28 71.020905 0.000000 0.000030 0.002323 -0.000334 106.381714 71.020905
29 71.020905 0.000000 0.000030 0.002323 -0.000334 106.381714 71.020905
[null_rope01_connect]
28 328.732483 0.000000 -0.000238 159.608917 -47.559589 -160.673111 328.732483
29 328.732483 0.000000 -0.000238 160.033340 -47.902386 -160.878967 328.732483
[Rope1_Seg01]
28 0.000000 0.000000 0.000000 26.556656 82.782944 37.168125 0.000000
29 0.000000 0.000000 0.000000 11.054745 82.100464 20.815197 0.000000
[Rope1_Seg02]
28 139.999863 -0.000179 0.000000 0.110507 4.511708 -6.416881 139.999863
29 139.999863 -0.000179 0.000000 0.068092 4.473922 -6.160726 139.999863
[Rope1_Seg03]
28 139.999924 0.000060 -0.000060 0.353892 6.716609 -9.734288 139.999924
29 139.999924 0.000060 -0.000060 0.234657 6.683915 -9.353395 139.999924
[Rope1_Seg04]
28 139.999924 -0.000060 -0.000119 -1.283426 15.818638 -19.994556 139.999924
29 139.999924 -0.000060 -0.000119 -1.969470 16.025665 -19.573072 139.999924
[Rope1_Seg05]
28 139.999832 0.000119 -0.000060 15.695213 4.803727 -12.420754 139.999832
29 139.999832 0.000119 -0.000060 14.146605 5.327465 -12.330833 139.999832
[Rope1_Seg06]
28 139.999954 0.000119 -0.000060 2.904285 -10.280835 8.745286 139.999954
29 139.999954 0.000119 -0.000060 3.579771 -10.947476 8.884253 139.999954
[Rope1_Seg07]
28 139.999985 0.000060 0.000000 2.022288 -3.864288 2.314200 139.999985
29 139.999985 0.000060 0.000000 2.002187 -3.969516 2.407166 139.999985
[Rope1_Seg09]
28 121.602913 0.000119 -0.000089 -89.793175 -1.359789 0.847147 121.602913
29 121.602913 0.000119 -0.000089 -89.793175 -1.359789 0.847147 121.602913
[L_mid_hand01]
28 103.859421 1.038730 8.195221 106.855484 -31.239275 -9.461397 104.187431
29 103.859421 1.038730 8.195221 106.855484 -31.239275 -9.461397 104.187431
[L_mid_hand02]
28 105.572853 -4.139662 -10.864139 -142.331345 25.752670 -28.774628 106.211075
29 105.572853 -4.139662 -10.864139 -142.331345 25.752670 -28.774628 106.211075
[L_mid_hand03]
28 104.641464 17.579376 -3.913581 -16.122810 9.734291 34.223598 106.179977
29 104.641464 17.579376 -3.913581 -16.122810 9.734291 34.223598 106.179977
[null_rope02_connect]
28 328.732849 0.000179 -0.000119 -88.345825 84.397926 86.279938 328.732849
29 328.732849 0.000179 -0.000119 -91.548935 84.264587 82.340126 328.732849
[Rope2_Seg01]
28 0.000076 0.000111 0.000153 76.068642 83.709129 -169.211060 0.000203
29 0.000076 0.000111 0.000153 86.693504 84.101662 -158.448044 0.000203
[Rope2_Seg02]
28 139.999741 -0.000060 -0.000119 -3.062214 11.768567 6.264763 139.999756
29 139.999741 -0.000060 -0.000119 -3.148870 11.176574 6.047506 139.999756
[Rope2_Seg03]
28 140.000107 0.000030 0.000000 -7.321183 16.009895 10.510263 140.000107
29 140.000107 0.000030 0.000000 -7.214736 15.162247 10.125327 140.000107
[Rope2_Seg04]
28 139.999802 0.000000 -0.000060 -10.783680 13.701574 12.010372 139.999802
29 139.999802 0.000000 -0.000060 -10.482950 13.196376 11.640866 139.999802
[Rope2_Seg05]
28 139.999985 -0.000060 0.000119 1.616740 0.576035 -2.488268 139.999985
29 139.999985 -0.000060 0.000119 2.088039 0.248992 -2.981844 139.999985
[Rope2_Seg06]
28 139.999893 -0.000030 -0.000119 1.460263 0.036615 -1.966516 139.999893
29 139.999893 -0.000030 -0.000119 1.691543 -0.158992 -2.187057 139.999893
[Rope2_Seg07]
28 139.999893 0.000060 -0.000060 -0.054383 0.646941 -0.290450 139.999893
29 139.999893 0.000060 -0.000060 0.128163 0.516536 -0.462667 139.999893
[Rope2_Seg09]
28 121.338966 0.000089 -0.000060 33.793236 -1.359788 -0.847141 121.338966
29 121.338966 0.000089 -0.000060 33.793236 -1.359788 -0.847141 121.338966
[R_mid_hand01]
28 104.680779 11.144459 -10.335981 -41.523792 25.424656 28.595957 105.778534
29 104.680779 11.144459 -10.335981 -41.523792 25.424656 28.595957 105.778534
[R_mid_hand02]
28 104.070427 2.443552 8.231699 72.847389 -32.746803 10.013901 104.424065
29 104.070427 2.443552 8.231699 72.847389 -32.746803 10.013901 104.424065
[R_mid_hand03]
28 106.028137 -11.221827 -5.996406 -167.901306 10.259192 -37.009720 106.788818
29 106.028137 -11.221827 -5.996406 -167.901306 10.259192 -37.009720 106.788818
[spine02]
28 129.756927 0.001550 0.000119 -0.245322 -4.052059 -4.355546 129.756927
29 129.756927 0.001550 0.000119 -0.245322 -4.052060 -4.355547 129.756927
[spine03]
28 78.613846 0.087372 -4.898873 0.207411 -2.089716 -0.432471 78.766380
29 78.613846 0.087372 -4.898873 0.207412 -2.089717 -0.432471 78.766380
[pelvis]
28 169.435242 0.051022 0.000000 -0.010007 -0.191417 -1.897553 169.435257
29 169.435242 0.051022 0.000000 -0.010007 -0.191417 -1.897554 169.435257
[null_rope03_connect]
28 -1.257226 -2.466202 137.391083 140.367722 -69.961914 -84.461815 137.418976
29 -1.257226 -2.466202 137.391083 140.168945 -70.156860 -83.488075 137.418976
[null_rope04_connect]
28 -1.259640 -2.480268 -137.844437 140.367722 -69.961914 -84.461815 137.872513
29 -1.259640 -2.480268 -137.844437 140.168945 -70.156860 -83.488075 137.872513
[Rope3_Seg01]
28 0.000000 0.000000 0.000000 -162.769913 66.530418 -101.936707 0.000000
29 0.000000 0.000000 0.000000 -161.005112 66.510155 -100.114876 0.000000
[Rope3_Seg02]
28 139.999924 -0.000119 0.000060 4.302126 8.578782 -6.317329 139.999924
29 139.999924 -0.000119 0.000060 4.075993 8.395123 -6.277466 139.999924
[Rope3_Seg03]
28 139.999924 -0.000119 0.000119 7.512782 17.572195 -8.452953 139.999924
29 139.999924 -0.000119 0.000119 7.124085 17.397455 -8.638271 139.999924
[Rope3_Seg04]
28 139.999924 0.000119 0.000000 -0.183698 -4.507783 -5.105660 139.999924
29 139.999924 0.000119 0.000000 0.020540 -3.834899 -5.147153 139.999924
[Rope3_Seg05]
28 139.999924 -0.000238 0.000060 -5.405584 -26.039700 3.305586 139.999924
29 139.999924 -0.000238 0.000060 -5.511770 -26.245062 3.961911 139.999924
[Rope3_Seg06]
28 139.999893 -0.000119 -0.000060 0.110071 -8.919262 -0.245030 139.999893
29 139.999893 -0.000119 -0.000060 0.096794 -9.043486 -0.010949 139.999893
[Rope3_Seg07]
28 139.999771 0.000060 -0.000119 0.624727 -5.043513 -0.209020 139.999771
29 139.999771 0.000060 -0.000119 0.624263 -5.071412 -0.085390 139.999771
[Rope3_Seg08]
28 139.999985 -0.000060 0.000000 0.699056 -2.913639 -0.090329 139.999985
29 139.999985 -0.000060 0.000000 0.694691 -2.911617 -0.015994 139.999985
[Rope3_Seg09]
28 90.185997 -0.000179 -0.000060 89.793228 -1.359877 -0.847183 90.185997
29 90.185997 -0.000179 -0.000060 89.793228 -1.359877 -0.847183 90.185997
[R_rear_hand01]
28 103.366196 -6.073594 -10.757982 -161.551193 16.666374 -30.088671 104.101845
29 103.366196 -6.073594 -10.757982 -161.551193 16.666374 -30.088671 104.101845
[R_rear_hand02]
28 100.509819 12.039542 -7.992327 -34.280552 19.289745 28.875523 101.543350
29 100.509819 12.039542 -7.992327 -34.280552 19.289745 28.875523 101.543350
[R_rear_hand03]
28 101.539970 5.215704 5.435467 83.366440 -30.933914 7.284830 101.819031
29 101.539970 5.215704 5.435467 83.366440 -30.933914 7.284830 101.819031
[Rope4_Seg01]
28 0.000010 0.000038 -0.000114 17.275158 71.054985 -145.534607 0.000121
29 0.000010 0.000038 -0.000114 20.194662 70.437996 -142.376755 0.000121
[Rope4_Seg02]
28 139.999985 0.000060 0.000119 -0.565411 -0.891396 7.881179 139.999985
29 139.999985 0.000060 0.000119 -0.549371 -0.388315 7.556239 139.999985
[Rope4_Seg03]
28 139.999924 0.000000 -0.000238 -1.207888 -1.222085 9.606619 139.999924
29 139.999924 0.000000 -0.000238 -1.187875 -0.602660 9.172761 139.999924
[Rope4_Seg04]
28 139.999985 0.000000 0.000119 -1.687639 -1.353644 9.385976 139.999985
29 139.999985 0.000000 0.000119 -1.656322 -0.724138 8.800428 139.999985
[Rope4_Seg05]
28 139.999802 -0.000060 -0.000119 0.115416 0.333018 0.001994 139.999802
29 139.999802 -0.000060 -0.000119 0.159311 0.318492 -0.220456 139.999802
[Rope4_Seg06]
28 139.999924 0.000000 0.000060 0.256978 0.373874 -0.571211 139.999924
29 139.999924 0.000000 0.000060 0.267173 0.299799 -0.596075 139.999924
[Rope4_Seg07]
28 139.999802 0.000000 0.000000 0.066378 0.110210 0.441889 139.999802
29 139.999802 0.000000 0.000000 0.081153 0.120109 0.347939 139.999802
[Rope4_Seg08]
28 139.999924 0.000000 0.000119 -1.496744 0.074660 0.287557 139.999924
29 139.999924 0.000000 0.000119 -1.486885 0.078746 0.223211 139.999924
[Rope4_Seg09]
28 90.185791 0.000060 0.000060 -135.617828 2.228885 0.850567 90.185791
29 90.185791 0.000060 0.000060 -135.617828 2.228885 0.850567 90.185791
[L_rear_hand01]
28 101.696655 -8.392275 -7.654577 -34.454281 -18.946800 151.655121 102.329041
29 101.696655 -8.392275 -7.654577 -34.454281 -18.946800 151.655121 102.329041
[L_rear_hand02]
28 102.726799 -1.568258 5.773216 83.407906 30.330435 172.796509 102.900848
29 102.726799 -1.568258 5.773216 83.407906 30.330435 172.796509 102.900848
[L_rear_hand03]
28 104.552910 9.721220 -10.420293 -161.379868 -16.473232 -150.512238 105.519653
29 104.552910 9.721220 -10.420293 -161.379868 -16.473232 -150.512238 105.519653
